<mxfile host="65bd71144e">
    <diagram id="qP0XtHuZRU8ex5wDoCvR" name="Page-1">
        <mxGraphModel dx="2128" dy="2173" grid="1" gridSize="10" guides="1" tooltips="1" connect="1" arrows="1" fold="1" page="1" pageScale="1" pageWidth="850" pageHeight="1100" math="0" shadow="0">
            <root>
                <mxCell id="0"/>
                <mxCell id="1" parent="0"/>
                <mxCell id="14" value="TAK Server" style="whiteSpace=wrap;html=1;align=center;rounded=1;shadow=0;dashed=0;strokeColor=default;strokeWidth=2;fontFamily=Helvetica;fontSize=14;fontColor=default;startSize=30;fillColor=default;" vertex="1" parent="1">
                    <mxGeometry x="-630" y="-240" width="100" height="40" as="geometry"/>
                </mxCell>
                <mxCell id="15" value="Postgres Database Server" style="whiteSpace=wrap;html=1;align=center;rounded=1;shadow=0;dashed=0;strokeColor=default;strokeWidth=2;fontFamily=Helvetica;fontSize=14;fontColor=default;startSize=30;fillColor=default;" vertex="1" parent="1">
                    <mxGeometry x="-650" y="-320" width="140" height="40" as="geometry"/>
                </mxCell>
                <mxCell id="16" value="Real Time Streaming Protocol Server" style="whiteSpace=wrap;html=1;align=center;rounded=1;shadow=0;dashed=0;strokeColor=default;strokeWidth=2;fontFamily=Helvetica;fontSize=14;fontColor=default;startSize=30;fillColor=default;" vertex="1" parent="1">
                    <mxGeometry x="-650" y="-180" width="140" height="40" as="geometry"/>
                </mxCell>
                <mxCell id="17" value="File Transfer Protocol Server" style="whiteSpace=wrap;html=1;align=center;rounded=1;shadow=0;dashed=0;strokeColor=default;strokeWidth=2;fontFamily=Helvetica;fontSize=14;fontColor=default;startSize=30;fillColor=default;" vertex="1" parent="1">
                    <mxGeometry x="-650" y="-110" width="140" height="40" as="geometry"/>
                </mxCell>
                <mxCell id="49" value="isA" style="edgeStyle=none;html=1;strokeColor=default;strokeWidth=2;fontFamily=Helvetica;fontSize=14;fontColor=default;startArrow=none;startFill=0;endArrow=classicThin;endFill=1;startSize=30;entryX=0.5;entryY=1;entryDx=0;entryDy=0;" edge="1" parent="1" source="19" target="5">
                    <mxGeometry x="0.004" relative="1" as="geometry">
                        <mxPoint x="-240" y="-330" as="targetPoint"/>
                        <mxPoint as="offset"/>
                    </mxGeometry>
                </mxCell>
                <mxCell id="52" style="edgeStyle=none;html=1;entryX=1;entryY=0.5;entryDx=0;entryDy=0;strokeColor=default;strokeWidth=2;fontFamily=Helvetica;fontSize=14;fontColor=default;startArrow=none;startFill=0;endArrow=classicThin;endFill=1;startSize=30;" edge="1" parent="1" source="19" target="14">
                    <mxGeometry relative="1" as="geometry"/>
                </mxCell>
                <mxCell id="53" style="edgeStyle=none;html=1;entryX=1;entryY=0.5;entryDx=0;entryDy=0;strokeColor=default;strokeWidth=2;fontFamily=Helvetica;fontSize=14;fontColor=default;startArrow=none;startFill=0;endArrow=classicThin;endFill=1;startSize=30;" edge="1" parent="1" source="19" target="16">
                    <mxGeometry relative="1" as="geometry"/>
                </mxCell>
                <mxCell id="54" style="edgeStyle=none;html=1;entryX=1;entryY=0.5;entryDx=0;entryDy=0;strokeColor=default;strokeWidth=2;fontFamily=Helvetica;fontSize=14;fontColor=default;startArrow=none;startFill=0;endArrow=classicThin;endFill=1;startSize=30;" edge="1" parent="1" source="19" target="17">
                    <mxGeometry relative="1" as="geometry"/>
                </mxCell>
                <mxCell id="55" style="edgeStyle=none;html=1;entryX=1;entryY=0.5;entryDx=0;entryDy=0;strokeColor=default;strokeWidth=2;fontFamily=Helvetica;fontSize=14;fontColor=default;startArrow=none;startFill=0;endArrow=classicThin;endFill=1;startSize=30;" edge="1" parent="1" source="19" target="15">
                    <mxGeometry relative="1" as="geometry"/>
                </mxCell>
                <mxCell id="19" value="LDAP Server" style="whiteSpace=wrap;html=1;align=center;rounded=1;shadow=0;dashed=0;strokeColor=default;strokeWidth=2;fontFamily=Helvetica;fontSize=14;fontColor=default;startSize=30;fillColor=default;" vertex="1" parent="1">
                    <mxGeometry x="-370" y="-190" width="140" height="40" as="geometry"/>
                </mxCell>
                <mxCell id="20" value="TAK Software" style="whiteSpace=wrap;html=1;align=center;rounded=1;shadow=0;dashed=0;strokeColor=default;strokeWidth=2;fontFamily=Helvetica;fontSize=14;fontColor=default;startSize=30;fillColor=default;" vertex="1" parent="1">
                    <mxGeometry x="100" y="-280" width="100" height="40" as="geometry"/>
                </mxCell>
                <mxCell id="39" style="edgeStyle=none;html=1;entryX=0.25;entryY=1;entryDx=0;entryDy=0;strokeColor=default;strokeWidth=2;fontFamily=Helvetica;fontSize=14;fontColor=default;startArrow=none;startFill=0;endArrow=classicThin;endFill=1;startSize=30;" edge="1" parent="1" source="21" target="37">
                    <mxGeometry relative="1" as="geometry"/>
                </mxCell>
                <mxCell id="21" value="Android TAK" style="whiteSpace=wrap;html=1;align=center;rounded=1;shadow=0;dashed=0;strokeColor=default;strokeWidth=2;fontFamily=Helvetica;fontSize=14;fontColor=default;startSize=30;fillColor=default;" vertex="1" parent="1">
                    <mxGeometry x="-130" y="-110" width="100" height="40" as="geometry"/>
                </mxCell>
                <mxCell id="41" style="edgeStyle=none;html=1;entryX=0.75;entryY=1;entryDx=0;entryDy=0;strokeColor=default;strokeWidth=2;fontFamily=Helvetica;fontSize=14;fontColor=default;startArrow=none;startFill=0;endArrow=classicThin;endFill=1;startSize=30;" edge="1" parent="1" source="22" target="37">
                    <mxGeometry relative="1" as="geometry"/>
                </mxCell>
                <mxCell id="22" value="Windows Tak" style="whiteSpace=wrap;html=1;align=center;rounded=1;shadow=0;dashed=0;strokeColor=default;strokeWidth=2;fontFamily=Helvetica;fontSize=14;fontColor=default;startSize=30;fillColor=default;" vertex="1" parent="1">
                    <mxGeometry x="130" y="-110" width="100" height="40" as="geometry"/>
                </mxCell>
                <mxCell id="28" style="edgeStyle=none;html=1;entryX=0.75;entryY=1;entryDx=0;entryDy=0;strokeColor=default;strokeWidth=2;fontFamily=Helvetica;fontSize=14;fontColor=default;startArrow=none;startFill=0;endArrow=classicThin;endFill=1;startSize=30;" edge="1" parent="1" source="23" target="20">
                    <mxGeometry relative="1" as="geometry"/>
                </mxCell>
                <mxCell id="23" value="TAK Server Software" style="whiteSpace=wrap;html=1;align=center;rounded=1;shadow=0;dashed=0;strokeColor=default;strokeWidth=2;fontFamily=Helvetica;fontSize=14;fontColor=default;startSize=30;fillColor=default;" vertex="1" parent="1">
                    <mxGeometry x="210" y="-190" width="100" height="40" as="geometry"/>
                </mxCell>
                <mxCell id="31" value="CanHave" style="edgeStyle=none;html=1;entryX=0.5;entryY=1;entryDx=0;entryDy=0;strokeColor=default;strokeWidth=2;fontFamily=Helvetica;fontSize=14;fontColor=default;startArrow=none;startFill=0;endArrow=classicThin;endFill=1;startSize=30;" edge="1" parent="1" source="29" target="22">
                    <mxGeometry relative="1" as="geometry"/>
                </mxCell>
                <mxCell id="46" style="edgeStyle=none;html=1;entryX=1;entryY=0.75;entryDx=0;entryDy=0;strokeColor=default;strokeWidth=2;fontFamily=Helvetica;fontSize=14;fontColor=default;startArrow=none;startFill=0;endArrow=classicThin;endFill=1;startSize=30;" edge="1" parent="1" source="29" target="42">
                    <mxGeometry relative="1" as="geometry"/>
                </mxCell>
                <mxCell id="29" value="WinTak Plugin" style="whiteSpace=wrap;html=1;align=center;rounded=1;shadow=0;dashed=0;strokeColor=default;strokeWidth=2;fontFamily=Helvetica;fontSize=14;fontColor=default;startSize=30;fillColor=default;" vertex="1" parent="1">
                    <mxGeometry x="130" y="-20" width="100" height="40" as="geometry"/>
                </mxCell>
                <mxCell id="32" value="CanHave" style="edgeStyle=none;html=1;entryX=0.5;entryY=1;entryDx=0;entryDy=0;strokeColor=default;strokeWidth=2;fontFamily=Helvetica;fontSize=14;fontColor=default;startArrow=none;startFill=0;endArrow=classicThin;endFill=1;startSize=30;" edge="1" parent="1" source="30" target="21">
                    <mxGeometry relative="1" as="geometry"/>
                </mxCell>
                <mxCell id="45" style="edgeStyle=none;html=1;entryX=0;entryY=0.75;entryDx=0;entryDy=0;strokeColor=default;strokeWidth=2;fontFamily=Helvetica;fontSize=14;fontColor=default;startArrow=none;startFill=0;endArrow=classicThin;endFill=1;startSize=30;" edge="1" parent="1" source="30" target="42">
                    <mxGeometry relative="1" as="geometry"/>
                </mxCell>
                <mxCell id="30" value="ATak Plugin" style="whiteSpace=wrap;html=1;align=center;rounded=1;shadow=0;dashed=0;strokeColor=default;strokeWidth=2;fontFamily=Helvetica;fontSize=14;fontColor=default;startSize=30;fillColor=default;" vertex="1" parent="1">
                    <mxGeometry x="-130" y="-20" width="100" height="40" as="geometry"/>
                </mxCell>
                <mxCell id="35" value="isA" style="edgeStyle=none;html=1;entryX=0.5;entryY=1;entryDx=0;entryDy=0;strokeColor=default;strokeWidth=2;fontFamily=Helvetica;fontSize=14;fontColor=default;startArrow=none;startFill=0;endArrow=classicThin;endFill=1;startSize=30;" edge="1" parent="1" source="34" target="30">
                    <mxGeometry relative="1" as="geometry"/>
                </mxCell>
                <mxCell id="34" value="TAK Tracker" style="whiteSpace=wrap;html=1;align=center;rounded=1;shadow=0;dashed=0;strokeColor=default;strokeWidth=2;fontFamily=Helvetica;fontSize=14;fontColor=default;startSize=30;fillColor=default;" vertex="1" parent="1">
                    <mxGeometry x="-130" y="70" width="100" height="40" as="geometry"/>
                </mxCell>
                <mxCell id="38" style="edgeStyle=none;html=1;entryX=0.25;entryY=1;entryDx=0;entryDy=0;strokeColor=default;strokeWidth=2;fontFamily=Helvetica;fontSize=14;fontColor=default;startArrow=none;startFill=0;endArrow=classicThin;endFill=1;startSize=30;" edge="1" parent="1" source="37" target="20">
                    <mxGeometry relative="1" as="geometry"/>
                </mxCell>
                <mxCell id="37" value="TAK Client" style="whiteSpace=wrap;html=1;align=center;rounded=1;shadow=0;dashed=0;strokeColor=default;strokeWidth=2;fontFamily=Helvetica;fontSize=14;fontColor=default;startSize=30;fillColor=default;" vertex="1" parent="1">
                    <mxGeometry y="-190" width="100" height="40" as="geometry"/>
                </mxCell>
                <mxCell id="43" value="CanHave" style="edgeStyle=none;html=1;entryX=0.5;entryY=1;entryDx=0;entryDy=0;strokeColor=default;strokeWidth=2;fontFamily=Helvetica;fontSize=14;fontColor=default;startArrow=none;startFill=0;endArrow=classicThin;endFill=1;startSize=30;" edge="1" parent="1" source="42" target="37">
                    <mxGeometry relative="1" as="geometry"/>
                </mxCell>
                <mxCell id="42" value="Tak Plugin" style="whiteSpace=wrap;html=1;align=center;rounded=1;shadow=0;dashed=0;strokeColor=default;strokeWidth=2;fontFamily=Helvetica;fontSize=14;fontColor=default;startSize=30;fillColor=default;" vertex="1" parent="1">
                    <mxGeometry y="-70" width="100" height="40" as="geometry"/>
                </mxCell>
                <mxCell id="47" value="" style="group" vertex="1" connectable="0" parent="1">
                    <mxGeometry x="-440" y="-560" width="280" height="240" as="geometry"/>
                </mxCell>
                <mxCell id="5" value="Domain Controller" style="swimlane;childLayout=stackLayout;horizontal=1;startSize=30;horizontalStack=0;rounded=1;fontSize=14;fontStyle=0;strokeWidth=2;resizeParent=0;resizeLast=1;shadow=0;dashed=0;align=center;dropTarget=0;" vertex="1" parent="47">
                    <mxGeometry width="280" height="240" as="geometry">
                        <mxRectangle x="450" y="170" width="150" height="30" as="alternateBounds"/>
                    </mxGeometry>
                </mxCell>
                <mxCell id="2" value="Data Store&lt;br&gt;(LDAP front end)" style="whiteSpace=wrap;html=1;align=center;" vertex="1" parent="47">
                    <mxGeometry x="20" y="70" width="100" height="130" as="geometry"/>
                </mxCell>
                <mxCell id="3" value="Schema" style="whiteSpace=wrap;html=1;align=center;" vertex="1" parent="47">
                    <mxGeometry x="170" y="70" width="100" height="40" as="geometry"/>
                </mxCell>
                <mxCell id="12" style="edgeStyle=none;html=1;entryX=0;entryY=0.5;entryDx=0;entryDy=0;strokeColor=default;strokeWidth=4;fontFamily=Helvetica;fontSize=14;fontColor=default;startArrow=none;startFill=0;endArrow=classic;endFill=0;startSize=30;exitX=1.006;exitY=0.155;exitDx=0;exitDy=0;exitPerimeter=0;" edge="1" parent="47" source="2" target="3">
                    <mxGeometry relative="1" as="geometry"/>
                </mxCell>
                <mxCell id="7" value="Authentication Database" style="whiteSpace=wrap;html=1;align=center;" vertex="1" parent="47">
                    <mxGeometry x="170" y="160" width="100" height="40" as="geometry"/>
                </mxCell>
                <mxCell id="13" style="edgeStyle=none;html=1;entryX=0;entryY=0.5;entryDx=0;entryDy=0;strokeColor=default;strokeWidth=4;fontFamily=Helvetica;fontSize=14;fontColor=default;startArrow=none;startFill=0;endArrow=classic;endFill=0;startSize=30;exitX=1.02;exitY=0.849;exitDx=0;exitDy=0;exitPerimeter=0;" edge="1" parent="47" source="2" target="7">
                    <mxGeometry relative="1" as="geometry"/>
                </mxCell>
                <mxCell id="51" value="Authenticates" style="edgeStyle=none;html=1;entryX=1;entryY=0.5;entryDx=0;entryDy=0;strokeColor=default;strokeWidth=2;fontFamily=Helvetica;fontSize=14;fontColor=default;startArrow=none;startFill=0;endArrow=classicThin;endFill=1;startSize=30;exitX=0;exitY=0.5;exitDx=0;exitDy=0;" edge="1" parent="1" source="37" target="19">
                    <mxGeometry relative="1" as="geometry">
                        <mxPoint x="-20" y="-170" as="sourcePoint"/>
                    </mxGeometry>
                </mxCell>
                <mxCell id="63" value="HasA" style="edgeStyle=none;html=1;strokeColor=default;strokeWidth=2;fontFamily=Helvetica;fontSize=14;fontColor=default;startArrow=none;startFill=0;endArrow=classicThin;endFill=1;startSize=30;" edge="1" parent="1" source="56" target="61">
                    <mxGeometry relative="1" as="geometry"/>
                </mxCell>
                <mxCell id="69" value="Uses" style="edgeStyle=none;html=1;entryX=0.5;entryY=0;entryDx=0;entryDy=0;strokeColor=default;strokeWidth=2;fontFamily=Helvetica;fontSize=14;fontColor=default;startArrow=none;startFill=0;endArrow=classic;endFill=1;startSize=30;" edge="1" parent="1" source="56" target="37">
                    <mxGeometry relative="1" as="geometry"/>
                </mxCell>
                <mxCell id="74" value="HasA" style="edgeStyle=none;curved=1;html=1;entryX=0.5;entryY=0;entryDx=0;entryDy=0;strokeColor=default;strokeWidth=2;fontFamily=Helvetica;fontSize=14;fontColor=default;startArrow=none;startFill=0;endArrow=classic;endFill=1;startSize=30;" edge="1" parent="1" source="56" target="72">
                    <mxGeometry relative="1" as="geometry"/>
                </mxCell>
                <mxCell id="56" value="User" style="whiteSpace=wrap;html=1;align=center;rounded=1;shadow=0;dashed=0;strokeColor=default;strokeWidth=2;fontFamily=Helvetica;fontSize=14;fontColor=default;startSize=30;fillColor=default;" vertex="1" parent="1">
                    <mxGeometry y="-500" width="100" height="40" as="geometry"/>
                </mxCell>
                <mxCell id="68" value="isA" style="edgeStyle=none;html=1;strokeColor=default;strokeWidth=2;fontFamily=Helvetica;fontSize=14;fontColor=default;startArrow=none;startFill=0;endArrow=classic;endFill=1;startSize=30;entryX=0.75;entryY=1;entryDx=0;entryDy=0;" edge="1" parent="1" source="57" target="61">
                    <mxGeometry relative="1" as="geometry">
                        <mxPoint x="275" y="-450" as="targetPoint"/>
                    </mxGeometry>
                </mxCell>
                <mxCell id="57" value="SysAdmin" style="whiteSpace=wrap;html=1;align=center;rounded=1;shadow=0;dashed=0;strokeColor=default;strokeWidth=2;fontFamily=Helvetica;fontSize=14;fontColor=default;startSize=30;fillColor=default;" vertex="1" parent="1">
                    <mxGeometry x="275" y="-400" width="100" height="40" as="geometry"/>
                </mxCell>
                <mxCell id="67" value="isA" style="edgeStyle=none;html=1;entryX=0.5;entryY=1;entryDx=0;entryDy=0;strokeColor=default;strokeWidth=2;fontFamily=Helvetica;fontSize=14;fontColor=default;startArrow=none;startFill=0;endArrow=classic;endFill=1;startSize=30;" edge="1" parent="1" source="58" target="61">
                    <mxGeometry relative="1" as="geometry"/>
                </mxCell>
                <mxCell id="58" value="EMS User" style="whiteSpace=wrap;html=1;align=center;rounded=1;shadow=0;dashed=0;strokeColor=default;strokeWidth=2;fontFamily=Helvetica;fontSize=14;fontColor=default;startSize=30;fillColor=default;" vertex="1" parent="1">
                    <mxGeometry x="130" y="-400" width="100" height="40" as="geometry"/>
                </mxCell>
                <mxCell id="64" value="Have" style="edgeStyle=none;html=1;strokeColor=default;strokeWidth=2;fontFamily=Helvetica;fontSize=14;fontColor=default;startArrow=none;startFill=0;endArrow=ERoneToMany;endFill=0;startSize=30;" edge="1" parent="1" source="61" target="62">
                    <mxGeometry relative="1" as="geometry"/>
                </mxCell>
                <mxCell id="61" value="Role" style="whiteSpace=wrap;html=1;align=center;rounded=1;shadow=0;dashed=0;strokeColor=default;strokeWidth=2;fontFamily=Helvetica;fontSize=14;fontColor=default;startSize=30;fillColor=default;" vertex="1" parent="1">
                    <mxGeometry x="195" y="-500" width="100" height="40" as="geometry"/>
                </mxCell>
                <mxCell id="62" value="Rights" style="whiteSpace=wrap;html=1;align=center;rounded=1;shadow=0;dashed=0;strokeColor=default;strokeWidth=2;fontFamily=Helvetica;fontSize=14;fontColor=default;startSize=30;fillColor=default;" vertex="1" parent="1">
                    <mxGeometry x="415" y="-500" width="100" height="40" as="geometry"/>
                </mxCell>
                <mxCell id="71" value="Defines" style="edgeStyle=none;html=1;entryX=0.5;entryY=0;entryDx=0;entryDy=0;strokeColor=default;strokeWidth=2;fontFamily=Helvetica;fontSize=14;fontColor=default;startArrow=none;startFill=0;endArrow=classic;endFill=1;startSize=30;curved=1;" edge="1" parent="1" source="7" target="61">
                    <mxGeometry x="0.3608" y="-54" relative="1" as="geometry">
                        <Array as="points">
                            <mxPoint x="70" y="-610"/>
                        </Array>
                        <mxPoint as="offset"/>
                    </mxGeometry>
                </mxCell>
                <mxCell id="72" value="User Credential" style="whiteSpace=wrap;html=1;align=center;rounded=1;shadow=0;dashed=0;strokeColor=default;strokeWidth=2;fontFamily=Helvetica;fontSize=14;fontColor=default;startSize=30;fillColor=default;" vertex="1" parent="1">
                    <mxGeometry x="-90" y="-400" width="100" height="40" as="geometry"/>
                </mxCell>
                <mxCell id="73" value="Stores" style="edgeStyle=none;curved=1;html=1;entryX=0;entryY=0.5;entryDx=0;entryDy=0;strokeColor=default;strokeWidth=2;fontFamily=Helvetica;fontSize=14;fontColor=default;startArrow=none;startFill=0;endArrow=classic;endFill=1;startSize=30;" edge="1" parent="1" source="7" target="72">
                    <mxGeometry relative="1" as="geometry"/>
                </mxCell>
            </root>
        </mxGraphModel>
    </diagram>
</mxfile>